<svg xmlns="http://www.w3.org/2000/svg" viewBox="0 0 32 32">
  <!-- Dark background -->
  <rect width="32" height="32" rx="6" fill="#0d0404"/>
  <!-- Face -->
  <ellipse cx="16" cy="15" rx="9.5" ry="12" fill="#ede4d4"/>
  <!-- Left eye: teardrop pointing down -->
  <path d="M11.5 9 C9.5 9 9 11 9 13 C9 15.5 10.5 17 11.5 17 C12.5 17 14 15.5 14 13 C14 11 13.5 9 11.5 9 Z" fill="#1a0505"/>
  <!-- Right eye: teardrop pointing down -->
  <path d="M20.5 9 C18.5 9 18 11 18 13 C18 15.5 19.5 17 20.5 17 C21.5 17 23 15.5 23 13 C23 11 22.5 9 20.5 9 Z" fill="#1a0505"/>
  <!-- Mouth: open scream oval -->
  <ellipse cx="16" cy="22" rx="3" ry="3.8" fill="#1a0505"/>
</svg>
